<?xml version="1.0" encoding="UTF-8" standalone="no"?>
<!-- Created with Inkscape (http://www.inkscape.org/) -->

<svg
   version="1.1"
   id="svg1"
   width="722"
   height="672"
   viewBox="0 0 722 672"
   sodipodi:docname="199.svg"
   inkscape:version="1.3.2 (091e20ef0f, 2023-11-25)"
   xmlns:inkscape="http://www.inkscape.org/namespaces/inkscape"
   xmlns:sodipodi="http://sodipodi.sourceforge.net/DTD/sodipodi-0.dtd"
   xmlns="http://www.w3.org/2000/svg"
   xmlns:svg="http://www.w3.org/2000/svg">
  <defs
     id="defs1" />
  <sodipodi:namedview
     id="namedview1"
     pagecolor="#ffffff"
     bordercolor="#000000"
     borderopacity="0.25"
     inkscape:showpageshadow="2"
     inkscape:pageopacity="0.0"
     inkscape:pagecheckerboard="0"
     inkscape:deskcolor="#d1d1d1"
     showgrid="false"
     inkscape:zoom="0.784914"
     inkscape:cx="175.17843"
     inkscape:cy="167.53428"
     inkscape:window-width="1920"
     inkscape:window-height="1011"
     inkscape:window-x="0"
     inkscape:window-y="0"
     inkscape:window-maximized="1"
     inkscape:current-layer="layer1" />
  <g
     inkscape:groupmode="layer"
     id="layer1"
     inkscape:label="Layer 1">
    <path
       id="path4"
       style="fill:#008000;stroke-width:2.17944"
       d="M 515.64648 45.798828 L 504.5625 46.080078 L 493.4082 50.060547 L 479.30273 57.378906 L 461.91602 70.886719 L 442.63672 88.951172 L 434.31641 98.304688 L 439.38867 106.64453 L 446.54883 127.07812 L 448.68555 141.82422 L 445.53516 158.21289 L 441.38086 172.2168 L 429.98828 195.41797 L 426.33789 202.32812 L 415.64258 219.04102 L 395.69531 246.95898 L 377.86328 271.39648 L 383.0293 274.95117 L 389.09766 267.67383 L 409.91797 241.45703 L 423.88477 224.25195 L 440.18945 206.04102 L 453.00391 193.32031 L 470.27539 178.62891 L 484.65625 169.50391 L 496.61523 164.33594 L 510.65234 161.97656 L 527.4082 162.42969 L 538.52344 122.16602 L 540.67969 91.990234 L 537.70312 66.429688 L 530.96875 54.347656 L 523.95898 48.900391 L 515.64648 45.798828 z M 160.89062 67.681641 L 149.89648 69.167969 L 142.91602 72.990234 L 136.45117 80.390625 L 132.48242 87.572266 L 131.20898 99.267578 L 133.13867 121.36523 L 145.87305 158.74023 L 151.83008 172.85938 L 154.56836 171.90039 C 154.56836 171.90039 171.43266 171.99941 172.06641 172.48633 C 172.70016 172.97325 192.00195 177.9375 192.00195 177.9375 L 213.75391 192.88672 L 223.49609 200.60742 L 241.43555 221.5918 L 260.51953 244.10352 L 278.9375 271.375 L 290.42578 288.55664 L 292.76953 288.66797 L 301.46094 281.31445 L 298.26367 278.64844 L 268.82227 239.39062 L 256.98047 223.00586 L 240.91016 195.00781 L 227.39648 167.7168 L 222.80078 150.89844 L 222.44727 132.42969 L 225.00781 117.875 L 229.61133 107.20117 L 233.89453 101.83398 L 229.69336 99.345703 L 224.13867 95.267578 L 204.14062 82.150391 L 184.37109 73.505859 L 173.31836 69.154297 L 160.89062 67.681641 z M 419.45703 352.39258 L 412.35547 367.33008 L 413.88086 368.47266 L 447.14648 377.84375 L 475.84766 387.61523 L 509.82812 401.36523 L 533.75391 414.5957 L 547.16211 425.75977 L 558.27734 439.91992 L 566.71875 461.69336 L 567.02148 480.88477 L 579.29883 482.32227 L 592.91992 483.51172 L 607.44141 483.31641 L 625.66797 481.55859 L 637.29297 477.82031 L 650.25391 469.57812 L 656.11914 459.83398 L 655.53125 444.32422 L 648.51953 429.39453 L 635.43945 411.9668 L 622.33594 398.19141 L 600.70703 380.74219 L 583.82812 369.04492 L 565.96875 379.37305 L 551.07227 384.4082 L 528.6875 384.24023 L 504.68945 382.01172 L 486.07812 376.77734 L 456.20117 366.72461 L 429.32422 356.71875 L 419.45703 352.39258 z M 276.80664 357.40234 L 256.50977 364.9043 L 219.19922 377.29688 L 195.07617 384.07031 L 169.36914 389.38281 L 165.62695 389.91406 L 146.34375 392.47266 L 132.41211 392.94141 L 118.45117 391.01367 L 107.47461 387.43164 L 95.101562 380.91992 L 73.802734 399.06445 L 61.623047 411.93164 L 48.634766 429.57031 L 42.662109 441.39062 L 40.888672 451.76953 L 42.320312 462.39648 L 48.365234 470.55859 L 56.025391 476.33008 L 66.978516 479.95508 L 80.443359 482.61719 L 109.47266 483.26172 L 118.43164 482.91797 L 119.63281 467.10352 L 122.6582 455.23047 L 127.50977 444.1875 L 135.94336 431.2207 L 144.89844 421.18359 L 156.14062 413.21484 L 171.54688 404.01172 L 183.78906 398.58789 L 215.17969 387.22266 L 239.3457 380.11914 L 263.26953 372.4043 L 280.16992 368.46875 L 281.60352 365.04883 L 279.96289 360.98242 L 276.80664 357.40234 z M 336.95898 407.56641 L 336.86719 419.00586 L 336.76562 451.94922 L 335.60938 489.33789 L 329.90039 527.50195 L 323.69336 552.49219 L 316.21875 567.41602 L 305.81055 578.46094 L 296.33984 587.23633 L 288.86328 590.9043 L 287.88281 592.15625 L 293.49805 607.32422 L 300.59961 625.18945 L 309.44531 640.89258 L 316.64258 649.61719 L 325.90625 656.26562 L 336.09961 658.55078 L 345.72852 656.73633 L 355.67383 650.38086 L 367.30273 637.97266 L 375.43945 624.07031 L 384.64844 605.31445 L 391.59766 586.07422 L 382.26172 577.50195 L 371.33203 566.54297 L 360.77148 545.47266 L 352.48047 512.69141 L 350.375 467.50781 L 349.64453 426.0625 L 350.16016 407.99219 L 336.95898 407.56641 z " />
    <path
       id="path3"
       style="fill:#ffff00;stroke-width:2.17944"
       d="M 282.99609 72.175781 L 264.29883 77.238281 L 248.90039 84.335938 L 241.19141 92.945312 L 233.24609 100.42969 L 223.97656 121.0293 L 222.01562 143.62891 L 223.87109 156.99609 L 236.80664 186.17773 L 248.50977 208.86328 L 266.50781 235.24414 L 296.4043 277.66992 L 302.82812 282.08203 L 308.66406 278.84375 L 322.83008 269.68555 L 339.07812 266.38672 L 354.13086 266.01172 L 368.77734 268.62891 L 377.58008 271.27539 L 383.43164 264.82812 L 398.03516 244.83594 L 418.11523 216.63867 L 435.0625 186.2793 L 446.92578 156.33594 L 447.58008 137.47461 L 445.02148 123.67969 L 443.07617 114.60352 L 434.80859 97.857422 L 425.76562 88.273438 L 411.68555 78.980469 L 395.12891 74.421875 L 380.39844 73.111328 L 362.63086 75.244141 L 356.6543 76.617188 L 338.55859 77.929688 L 320.69727 77.546875 L 293.93555 73.074219 L 282.99609 72.175781 z M 513.22852 161.65234 L 499.4375 164.36914 L 486.0957 168.37109 L 466.87305 181.75195 L 451.68164 195.0625 L 435.3457 210.32031 L 418.87109 229.73242 L 405.03711 246.88867 L 390.41992 266.65625 L 384.80273 273.19922 L 385.46094 275.63867 L 396.35938 283.85547 L 407.73828 297.75977 L 416.35938 314.11133 L 419.38867 334.24414 L 418.78711 352.99023 L 424.2793 354.83398 L 450.61523 364.25 L 484.86328 377.08984 L 507.60742 382.20898 L 529.08789 384.65234 L 550.55664 384.55859 L 570.52539 376.9082 L 586.26953 367.24219 L 600.89844 347.24805 L 606.79102 326.42578 L 604.76758 302.28516 L 592.75977 273.67773 L 585.86133 257.31641 L 583.20508 236.90039 L 579.74219 211.00195 L 575.62305 199.14453 L 567.54297 186.64453 L 559.57031 177.99023 L 546.93945 169.5332 L 529.3418 162.5957 L 513.22852 161.65234 z M 152.89648 172.09375 L 141.3457 174.75391 L 126.49414 180.96289 L 115.91992 191.16016 L 106.74609 201.77734 L 99.347656 219.90625 L 94.431641 247.87891 L 89.068359 268.74805 L 78.34375 290.27148 L 69.615234 305.59375 L 67.761719 314.46484 L 66.914062 327.85742 L 70.103516 346.12109 L 81.126953 367.97266 L 101.53516 384.875 L 118.60742 391.70703 L 132.41797 392.58203 L 152.57031 391.97656 L 186.60352 386.16016 L 212.05273 380.02734 L 254.92773 365.67578 L 272.98438 359.03711 L 276.34766 353.4043 L 277.36523 342.04297 L 277.78516 321.47461 L 285.53711 300.45117 L 292.73047 290.18555 L 289.77539 286.29883 L 288.96094 283.92383 L 287.16211 282.36914 L 283.46875 276.75781 L 269.63867 257.18164 L 254.64062 236.77734 L 238.61719 216.62891 L 224.36523 202.32812 L 207.33398 187.01562 L 188.29883 176.51367 L 173.67383 172.42578 L 152.89648 172.09375 z M 413.24609 367.99219 L 407.10938 377.93945 L 390.54297 394.75 L 368.2832 405.21875 L 350.20117 409.0293 L 350.16016 432.02344 L 350.44922 474.76172 L 352.28516 507.82031 L 357.56641 536.99219 L 370.73438 565.55273 L 385.48438 580.87695 L 401.47266 590.72266 L 417.41211 595.09375 L 431.00586 595.2793 L 446.71094 591.60938 L 459.23828 586.32227 L 472.35352 574.62109 L 495.11328 553.11328 L 510.5918 541.40234 L 531.78516 530.54688 L 547.35352 521.02148 L 558.61719 505.25 L 565.75 488.08008 L 567.17578 473.36914 L 564.16406 453.54883 L 554.88672 434.5957 L 547.43164 424.47852 L 529.82422 412.50586 L 497.20312 395.53711 L 470.91602 385.75195 L 435.01562 374.18945 L 414.37305 368.13672 L 413.24609 367.99219 z M 282.51953 368.31445 L 256.39453 374.9043 L 232.88281 381.3125 L 204.0625 390.48242 L 175.28906 403.11914 L 155.60938 413.74805 L 140.28711 426.54102 L 126.34375 445.05664 L 121.10156 460.8125 L 119.89258 483.81641 L 124.78125 502.14844 L 142.19336 523.67383 L 156.06641 532.92188 L 171.66992 540.6875 L 195.96289 559.28906 L 217.95703 582.73828 L 233.18164 591.15625 L 250.30664 596.38086 L 263.90625 596.94922 L 276.375 594.43359 L 292.10156 589.92578 L 307.54688 578 L 321.66211 557.75195 L 329.4043 533.59766 L 332.79102 512.06055 L 336.86719 461.50586 L 338.17383 424.61719 L 335.33984 409.50586 L 334.65234 408.45508 L 325.25 404.26367 L 310.1543 396.54492 L 298.86523 388.67773 L 288.26172 375.98242 L 282.51953 368.31445 z " />
    <path
       id="path2"
       style="fill:#ff0000;stroke-width:2.5838"
       d="m 417.90968,336.23929 a 70.681404,71.188156 0 0 1 -70.68141,71.18815 70.681404,71.188156 0 0 1 -70.6814,-71.18815 70.681404,71.188156 0 0 1 70.6814,-71.18816 70.681404,71.188156 0 0 1 70.68141,71.18816 z" />
    <path
       id="path1"
       style="fill:#000000"
       d="M 511.85547 44 C 493.44986 44 471.88365 56.830061 445.91797 83.228516 L 434.33789 95.003906 L 431.25391 91.166016 C 427.1361 86.041957 415.90989 78.506775 408.5 75.892578 C 393.13915 70.473293 379.41097 69.835317 361.20898 73.695312 C 343.90605 77.364653 329.13093 77.333631 309.06055 73.585938 C 287.58468 69.575802 283.83635 69.393927 273.99414 71.882812 C 261.32892 75.085579 248.50533 81.703331 242.45703 88.160156 C 239.70616 91.096824 236.46382 94.784069 235.25195 96.353516 L 233.04883 99.207031 L 229.27539 96.232422 C 221.31041 89.954582 204.72157 79.745279 194.82422 75.029297 C 174.77147 65.474373 158.01938 63.063662 147 68.148438 C 136.73931 72.883123 131.73813 80.420171 129.73438 94.167969 C 127.24689 111.23461 133.60642 136.6664 148.58398 169.55273 C 148.85303 170.14349 146.74447 171.18502 143.78125 171.92578 C 126.16177 176.33036 113.13543 186.75826 103.62695 204.06641 C 98.346479 213.67839 96.152333 220.9417 94.451172 234.45312 C 91.467223 258.15305 88.875682 265.9074 75.882812 290 C 65.998463 308.32848 64.557021 313.63726 65.294922 329 C 65.650816 336.40953 66.575583 342.82514 67.896484 347.03516 C 70.487612 355.29369 80.291274 370.27893 87.117188 376.41602 C 89.975154 378.98557 91.904834 381.43561 91.40625 381.86133 C 90.907666 382.28705 86.899996 385.59191 82.5 389.20508 C 78.100004 392.81823 70.201852 400.21202 64.949219 405.63672 C 33.96918 437.63157 30.537534 465.59714 56.007812 478.50391 C 66.981417 484.06465 74.565375 485.33856 97.144531 485.41406 L 117.78906 485.48438 L 118.9707 490.75781 C 121.64361 502.70161 132.25014 518.42707 143.77734 527.53516 C 146.92435 530.02172 155.80001 535.23768 163.5 539.125 C 181.56883 548.24699 188.33918 553.49988 206.16602 572.23242 C 222.49218 589.38805 226.33736 592.03154 241.52734 596.54492 C 253.46474 600.09188 263.91563 600.13846 277 596.70117 C 282.22499 595.32856 286.77225 594.49751 287.10547 594.85352 C 287.43869 595.20952 288.92904 599.47753 290.41602 604.33789 C 294.41199 617.39924 300.20296 630.07914 306.48438 639.51953 C 314.58591 651.69538 322.86091 658.20619 332.34375 659.86328 C 337.81075 660.81862 344.74402 659.68136 350.0918 656.95312 C 356.0546 653.91113 365.25867 644.88558 370.61914 636.82227 C 377.5618 626.37902 387.29034 604.29755 391.56055 589.29297 C 391.79322 588.47543 394.26505 589.1761 399.21875 591.46484 C 415.08506 598.79554 430.69209 599.64615 446.10938 594.01953 C 461.98217 588.22668 467.6379 583.9646 488 562.45117 C 498.08834 551.79241 504.89408 547.11249 527.27148 535.44922 C 541.70114 527.92839 544.84356 525.85213 549.77148 520.58203 C 559.49013 510.18856 568 493.7194 568 485.30273 C 568 483.18937 568.36231 482.87388 570.25 483.34766 C 576.42812 484.89826 597.81484 486.20474 608.5 485.68359 C 622.47298 485.00207 633.55943 482.41748 642.14062 477.84375 C 661.17766 467.69712 663.11026 447.50487 647.32227 423.72461 C 637.9218 409.56541 612.19327 385.50027 592.24805 372.21289 L 586.99414 368.71289 L 591.44922 363.94922 C 607.14563 347.16848 611.95203 327.23627 606.38672 302 C 605.59833 298.425 601.62562 288.52499 597.55859 280 C 588.73912 261.51333 586.59643 253.48259 584.48633 231 C 582.16479 206.26462 580.69475 201.44859 571.50195 188.5 C 562.53151 175.86462 549.53003 166.80886 534.64648 162.82812 C 530.62948 161.75374 529.92861 161.21885 530.3125 159.52344 C 530.56444 158.41078 532.41482 151.64999 534.42578 144.5 C 540.36785 123.37287 542.28927 110.77195 542.35547 92.5 C 542.41645 75.669657 541.1689 68.1704 536.91797 59.837891 C 531.69071 49.591627 522.84207 44 511.85547 44 z M 511 48.042969 C 519.18578 48.044065 524.41094 50.327041 529.29688 56.035156 C 534.19139 61.753298 536.79568 69.080171 538.20703 81.109375 C 540.1864 97.979944 536.35562 125.79612 528.71094 150.07227 L 525.48828 160.30859 L 517.49414 160.13867 C 507.55501 159.92696 493.27473 162.81623 485.95312 166.51953 C 474.17975 172.47456 456.83001 186.3287 439.01953 204 C 430.93385 212.0225 402.30919 246.27913 389.50977 263.25 C 384.33381 270.11284 382 272.33164 382 270.39062 C 382 270.05564 387.95771 261.61813 395.24023 251.64062 C 414.88902 224.72058 430.05218 201.62608 435.77148 189.90625 C 441.7413 177.67308 447.20066 162.28088 448.99805 152.61328 C 451.58592 138.69386 447.91457 117.86114 440.48438 104.29492 L 437.08594 98.087891 L 449.29297 85.691406 C 474.20586 60.391816 494.44975 48.040754 511 48.042969 z M 160.37695 69.722656 C 176.72463 69.828002 196.94207 78.413201 221.61914 95.728516 L 230.73828 102.12695 L 227.95312 107.3125 C 222.39357 117.66588 220.49472 126.17341 220.54492 140.5 C 220.58486 151.89607 220.92628 154.50339 223.30273 161.63281 C 227.30723 173.6464 244.69499 207.87885 253.20312 220.5 C 262.14344 233.76226 287.12503 268.31186 293.40625 276.09961 L 297.92383 281.69922 L 295.16992 284.33789 L 292.41602 286.97461 L 290.625 283.94336 C 287.79007 279.1442 266.80965 250.01749 253.61328 232.56055 C 234.81917 207.69858 218.42815 191.60826 200.69727 180.61523 C 189.06316 173.40217 176.3751 170.02311 160.85938 170.00781 L 153.2168 170 L 148.97852 160.33203 C 128.62073 113.91303 128.02483 82.235032 147.32812 72.587891 C 152.1957 70.155242 154.34509 69.683786 160.37695 69.722656 z M 283.78516 74.455078 C 288.99921 74.369943 295.3076 75.255812 305.5 77.068359 C 329.95964 81.418095 343.12485 81.541141 362.5 77.599609 C 374.03119 75.253795 377.99892 74.854522 385 75.335938 C 400.85514 76.426185 414.76335 81.607289 424.21289 89.945312 C 438.03769 102.14395 447.2049 126.20827 445.66016 146.24023 C 444.35826 163.12289 433.31062 189.27733 417.4707 212.97461 C 408.34855 226.62177 383.7917 260.80554 379.65625 265.61328 L 377.42188 268.21094 L 370.46094 265.97266 C 365.43081 264.3555 360.12465 263.60083 351.33008 263.25 C 336.84777 262.67228 328.01312 264.29022 317.10547 269.51758 C 313.15022 271.41308 307.92369 274.33354 305.49023 276.00781 L 301.06445 279.05078 L 295.11328 271.5625 C 287.63658 262.15386 273.9529 243.31144 260.33008 223.66602 C 247.90689 205.75057 230.6648 172.09144 226.43555 157.5 C 224.14058 149.58208 223.88541 147.23757 224.31445 138 C 225.16736 119.63601 230.66322 106.91667 243.82227 92.849609 C 250.37544 85.844238 256.88864 81.859822 268.63672 77.669922 C 274.45178 75.596005 278.5711 74.540213 283.78516 74.455078 z M 515.17383 164.30664 C 521.4703 164.20167 527.61154 164.92978 533 166.55078 C 549.25451 171.4406 560.35384 179.25465 568.84375 191.7832 C 577.36106 204.35218 578.20773 207.25351 580.47461 231.63477 C 582.72328 255.82011 584.94016 263.95641 594.4375 282.88281 C 597.57897 289.14317 601.03982 297.69318 602.12891 301.88281 C 604.51981 311.08041 604.98202 327.11967 603.08203 335 C 598.47614 354.10336 580.86423 371.91039 558.80664 379.76367 C 552.52213 382.00119 549.61275 382.39878 538 382.60938 C 511.54546 383.08913 492.00388 378.29804 440.52539 358.7168 L 421.55078 351.5 L 421.83008 339 C 422.15644 324.36141 420.28778 315.39592 414.51172 303.88672 C 408.80328 292.51228 401.99885 284.37663 391.76953 276.69727 L 387.03906 273.14648 L 394.22656 263.82227 C 404.33536 250.71216 427.09087 222.87147 434.74023 214.25391 C 447.51125 199.86644 474.15128 177.2705 485.16602 171.48242 C 493.75388 166.96963 504.67972 164.4816 515.17383 164.30664 z M 164.1875 174.29102 C 170.54127 174.49024 176.90801 175.23595 181.45703 176.46875 C 199.47387 181.35138 222.96297 200.05535 243.08008 225.54102 C 252.33816 237.26974 275.45209 268.79877 284.33398 281.81445 L 290.00781 290.12891 L 287.13867 294.31445 C 283.0176 300.32628 279.56858 307.46845 276.91016 315.5 C 274.89076 321.60095 274.58505 324.55496 274.53125 338.5 C 274.49732 347.29999 274.13193 355.03046 273.71875 355.67969 C 272.46806 357.64495 254.01447 364.3507 225 373.38086 C 192.05949 383.63291 185.72732 385.17314 163 388.46094 C 143.23261 391.32054 127.43626 391.65531 119 389.39453 C 102.73568 385.03598 88.261669 374.34289 78.925781 359.78906 C 72.241846 349.3694 70.011622 342.23615 69.302734 329 C 68.551853 314.97976 70.151803 309.12633 79.400391 292.05273 C 92.199945 268.42378 95.895483 257.67791 97.986328 238 C 101.58835 204.09969 119.51988 181.19375 147 175.38867 C 151.49365 174.43941 157.83373 174.09179 164.1875 174.29102 z M 345.68359 268.14062 C 356.93008 267.68116 367.62433 270.1407 378.97852 275.68555 C 386.75782 279.4846 389.91933 281.77675 396.61719 288.47461 C 403.39485 295.25226 405.54342 298.23438 409.29297 306.06836 C 415.26588 318.54763 416.51707 324.15263 416.41797 338 C 416.34801 347.77286 415.92385 350.70149 413.60156 357.5 C 410.43573 366.768 407.46657 372.2057 401.14062 380.31445 C 393.05648 390.67689 378.07149 400.11618 364.5 403.39648 C 340.28442 409.24954 317.85619 402.88092 299.88281 385.04883 C 288.92713 374.17929 282.98887 362.87031 280.44141 348.02344 C 274.24573 311.91438 298.26094 276.87009 334.20703 269.56641 C 338.12347 268.77065 341.93477 268.29378 345.68359 268.14062 z M 420.1543 355.38477 L 442.32617 363.72266 C 489.39561 381.42075 506.48363 385.82173 531.5 386.69336 C 543.23397 387.1022 547.98406 386.86674 553.31836 385.60742 C 560.74056 383.8552 571.89189 378.9328 579 374.27148 L 583.5 371.32031 L 589.5 375.3418 C 617.20423 393.91377 639.5984 416.33198 648.6543 434.55859 C 660.01431 457.42261 652.8394 472.40286 627.32422 479.0957 C 618.16019 481.4995 595.57709 482.42211 582 480.94727 C 568.28884 479.45785 569 479.89696 569 472.93945 C 569 463.14611 566.3309 452.2851 561.51758 442.5 C 552.27532 423.71121 544.15154 416.85696 511.85352 400.5918 C 493.68234 391.44086 488.04712 389.16694 464.85352 381.62305 C 450.35921 376.90865 433.50509 371.61427 427.40039 369.85938 L 416.30078 366.66992 L 418.22656 361.02734 L 420.1543 355.38477 z M 276.46875 359.36914 C 277.1011 359.8587 277.77308 360.916 278.48633 362.62305 C 279.31871 364.61521 280 366.3566 280 366.49414 C 280 366.63167 278.0875 367.04539 275.75 367.41406 C 264.43067 369.19933 200.66642 389.28571 183.54492 396.45898 C 171.84141 401.36232 157.66434 409.39269 148.3457 416.39844 C 130.56901 429.76293 119.43638 450.1003 117.45312 472.83594 L 116.76562 480.72656 L 109.23242 481.36328 C 73.768571 484.36108 49.32285 476.2065 43.998047 459.60352 C 38.506002 442.47905 57.753779 412.87622 90.675781 387.8125 L 95.851562 383.87109 L 104.17578 387.86914 C 115.70297 393.40644 122.7409 395.00109 135.64453 394.99609 C 147.9888 394.99145 176.41118 391.17085 191.25781 387.52148 C 212.22585 382.36746 261.31355 366.27039 272.0957 361.26367 L 276.46875 359.36914 z M 279.61133 371 C 281.26167 371 283.02693 372.77343 286.35742 377.7832 C 296.15034 392.51387 313.99773 405.37036 329 408.5 C 335.13159 409.77912 335.00362 409.24364 334.9707 433.37305 C 334.90234 483.47451 332.36044 510.45022 324.92578 540 C 320.70234 556.78646 316.48945 564.61833 306.08789 575.02539 C 296.17156 584.94697 287.92531 589.74273 275.5 592.81445 C 260.5194 596.51789 254.40317 596.3072 239.39258 591.56445 C 228.74589 588.20052 223.29411 584.51846 213.6875 574.20898 C 191.16324 550.03676 183.96098 544.40192 162.09961 533.84766 C 150.86551 528.42404 148.88516 527.0464 141.03125 519.18164 C 127.0901 505.22123 121.66369 493.25071 121.68359 476.5 C 121.697 465.22773 123.74942 457.03751 129.44922 445.5 C 134.22626 435.83031 139.27099 429.14017 146.16992 423.32812 C 159.23193 412.32399 182.31442 400.30712 205 392.70117 C 234.55029 382.79365 275.09778 371 279.61133 371 z M 415.80664 371.22266 C 416.35825 371.23043 417.02462 371.34482 417.89453 371.50781 C 422.47952 372.36689 448.10614 380.28526 472 388.22656 C 492.96524 395.19452 526.42392 411.2303 538.20508 419.95703 C 546.41772 426.04044 552.81442 433.94726 558.06055 444.5 C 563.534 455.51003 565.36221 464.82233 564.57227 477.66992 C 563.65805 492.53872 560.27335 501.00046 549.70898 514.82617 C 544.68183 521.40527 541.0215 523.93652 524.29102 532.4043 C 502.78135 543.29098 495.22175 548.8147 480.5 564.40234 C 465.98696 579.76901 458.62972 585.08452 444.98438 590.06445 C 435.8546 593.39641 424.98065 594.52278 416.58008 593.00586 C 400.56673 590.11429 381.73869 577.69792 372.12109 563.6875 C 363.45575 551.0643 356.48991 528.27024 353.95898 504.26172 C 352.62081 491.56758 350.84369 425.29231 351.63086 417.43555 L 352.23828 411.37305 L 361.12305 409.69336 C 371.84477 407.6665 380.26614 404.36423 388.65234 398.90039 C 395.95802 394.14057 407.59363 382.25582 411.53906 375.52344 C 413.52935 372.12726 414.15182 371.19934 415.80664 371.22266 z M 339 411 L 343.25 411.00195 L 347.5 411.00586 L 347.75391 443.75195 C 348.24694 507.26233 351.75321 532.2249 363.6582 557 C 367.68293 565.37574 369.4111 567.67092 378.25977 576.39453 L 388.29492 586.28906 L 384.5625 597.34375 C 374.7411 626.42656 360.96895 647.38091 347.57617 653.61719 C 326.67111 663.35152 306.87954 643.96196 293.41797 600.55859 C 291.42644 594.13745 290.98265 591.50578 291.84375 591.21875 C 295.61747 589.96084 305.85942 581.88394 311.55469 575.67578 C 323.17799 563.00575 328.59107 548.37108 334.46094 513.73047 C 337.5107 495.73249 338.92996 470.71944 338.97266 434.25 L 339 411 z " />
  </g>
</svg>
